#!OML:ASF F:\VICON\USERDATA\INSTALL\rory3\rory3.ASF
:FULLY-SPECIFIED
:DEGREES
541
root 3.37515 18.0341 8.20724 1.4457 19.3507 2.2367
lowerback 9.13047 0.829592 -2.7988
upperback 1.89587 0.876023 0.837214
thorax -3.20453 0.466298 2.34002
lowerneck -13.242 -3.98873 -11.3245
upperneck 42.1567 -3.86035 4.42794
head 18.4998 -2.63412 3.46734
rclavicle 2.90226e-014 1.07344e-014
rhumerus -33.956 26.5609 -94.1843
rradius 89.4392
rwrist 28.456
rhand -38.0341 25.546
rfingers 7.12502
rthumb -11.0722 -4.14194
lclavicle 2.90226e-014 1.07344e-014
lhumerus -33.1583 -28.3847 102.925
lradius 85.2008
lwrist 35.093
lhand -21.3264 37.9013
lfingers 7.12502
lthumb 5.05916 67.8209
rfemur -9.7877 -4.49503 13.0666
rtibia 27.4552
rfoot -11.9021 -11.056
rtoes -2.44948
lfemur -6.07612 -2.05971 -21.3865
ltibia 18.7347
lfoot -8.26811 3.21988
ltoes -6.69368
542
root 3.36136 18.0335 8.20893 1.36881 19.4381 2.08291
lowerback 9.31572 0.873683 -2.68376
upperback 1.95085 0.942421 0.862815
thorax -3.253 0.498566 2.29231
lowerneck -13.207 -4.0144 -11.3795
upperneck 42.1617 -3.90626 4.48849
head 18.5038 -2.65227 3.49869
rclavicle 1.28713e-014 -4.77083e-015
rhumerus -33.7993 26.7815 -94.0965
rradius 89.3227
rwrist 28.7951
rhand -38.4916 25.8026
rfingers 7.12502
rthumb -11.5134 -3.86122
lclavicle 1.28713e-014 -4.77083e-015
lhumerus -33.0806 -28.3089 102.957
lradius 85.1976
lwrist 35.0148
lhand -21.4262 37.7867
lfingers 7.12502
lthumb 4.96286 67.7086
rfemur -9.76924 -4.51657 13.2737
rtibia 27.4866
rfoot -11.9632 -11.0763
rtoes -2.09885
lfemur -6.08058 -1.93537 -21.1656
ltibia 18.7215
lfoot -8.25091 2.96816
ltoes -6.60342
543
root 3.35104 18.0339 8.21591 1.34191 19.5616 2.00803
lowerback 9.4245 0.890183 -2.59877
upperback 1.99566 0.969938 0.848091
thorax -3.26684 0.511258 2.22488
lowerneck -13.1968 -4.00714 -11.3858
upperneck 42.1843 -3.9004 4.51823
head 18.5153 -2.6464 3.51691
rclavicle -6.80837e-015 7.95139e-015
rhumerus -33.7294 26.9982 -94.0891
rradius 89.2552
rwrist 29.076
rhand -38.8593 26.0276
rfingers 7.12502
rthumb -11.8679 -3.6161
lclavicle -6.80837e-015 7.95139e-015
lhumerus -32.9717 -28.2908 102.928
lradius 85.1539
lwrist 35.0578
lhand -21.5475 37.5372
lfingers 7.12502
lthumb 4.84566 67.4618
rfemur -9.73925 -4.71805 13.3853
rtibia 27.5199
rfoot -12.0091 -11.0044
rtoes -1.82375
lfemur -6.07739 -1.8622 -21.0299
ltibia 18.7224
lfoot -8.26019 2.74234
ltoes -6.59371
544
root 3.34295 18.0353 8.22298 1.48385 19.6566 2.04109
lowerback 9.34696 0.90287 -2.64709
upperback 2.02837 0.983747 0.828521
thorax -3.1911 0.517115 2.2311
lowerneck -13.1752 -3.96531 -11.3505
upperneck 42.1681 -3.82116 4.46705
head 18.4858 -2.614 3.5007
rclavicle 2.73329e-014 1.82882e-014
rhumerus -33.6517 27.154 -94.0477
rradius 89.135
rwrist 29.692
rhand -39.5447 26.1358
rfingers 7.12502
rthumb -12.5289 -3.46855
lclavicle 2.73329e-014 1.82882e-014
lhumerus -32.8215 -28.2383 102.908
lradius 85.0148
lwrist 34.9358
lhand -21.5617 37.0615
lfingers 7.12502
lthumb 4.83197 66.9864
rfemur -9.85092 -4.93149 13.3881
rtibia 27.5458
rfoot -12.0394 -10.9213
rtoes -1.78639
lfemur -6.23778 -1.81869 -21.0088
ltibia 18.7485
lfoot -8.25372 2.584
ltoes -6.65557
545
root 3.3294 18.0362 8.22488 1.63833 19.7375 2.07085
lowerback 9.31584 0.920248 -2.79198
upperback 2.07087 0.995247 0.856499
thorax -3.13317 0.522834 2.34108
lowerneck -13.0761 -3.91652 -11.4226
upperneck 42.0857 -3.73348 4.48025
head 18.4001 -2.58553 3.53402
rclavicle 1.69464e-014 -9.93923e-015
rhumerus -33.5582 27.2675 -93.9309
rradius 89.0972
rwrist 30.3374
rhand -40.591 26.6289
rfingers 7.12502
rthumb -13.5374 -2.91109
lclavicle 1.69464e-014 -9.93923e-015
lhumerus -32.7076 -28.0868 102.9
lradius 84.9515
lwrist 34.7639
lhand -21.6047 36.8049
lfingers 7.12502
lthumb 4.79043 66.7308
rfemur -10.0081 -4.99299 13.4205
rtibia 27.5734
rfoot -12.0476 -10.8955
rtoes -1.52698
lfemur -6.44133 -1.68199 -20.9721
ltibia 18.7575
lfoot -8.19955 2.3486
ltoes -7.18979
